<svg xmlns="http://www.w3.org/2000/svg" viewBox="0 0 120 120" width="100%" height="100%">
  <defs>
    <linearGradient id="domeGrad" x1="0%" y1="0%" x2="100%" y2="100%">
      <stop offset="0%" stop-color="#6366f1" /> <!-- Indigo 500 -->
      <stop offset="100%" stop-color="#8b5cf6" /> <!-- Violet 500 -->
    </linearGradient>
    <linearGradient id="sparkleGrad" x1="0%" y1="0%" x2="100%" y2="100%">
      <stop offset="0%" stop-color="#10b981" /> <!-- Emerald 500 -->
      <stop offset="100%" stop-color="#34d399" /> <!-- Emerald 400 -->
    </linearGradient>
  </defs>
  <!-- Base/Plate -->
  <rect x="20" y="85" width="80" height="6" rx="3" fill="#3f3f46" /> <!-- Zinc 700 -->
  <!-- Dome -->
  <path d="M 25 80 C 25 45, 95 45, 95 80 Z" fill="url(#domeGrad)" />
  <!-- Handle -->
  <circle cx="60" cy="35" r="6" fill="#4f46e5" /> <!-- Indigo 600 -->
  <!-- Sparkles -->
  <path d="M 85 25 Q 87 32 94 34 Q 87 36 85 43 Q 83 36 76 34 Q 83 32 85 25 Z" fill="url(#sparkleGrad)" />
  <path d="M 35 15 Q 36 20 41 21 Q 36 22 35 27 Q 34 22 29 21 Q 34 20 35 15 Z" fill="#f59e0b" /> <!-- Amber 500 -->
</svg>
